<svg xmlns="http://www.w3.org/2000/svg" xmlns:xlink="http://www.w3.org/1999/xlink" width="1920" zoomAndPan="magnify" viewBox="0 0 1440 809.999993" height="1080" preserveAspectRatio="xMidYMid meet" version="1.0"><defs><clipPath id="0e8eee9d18"><path d="M 266.300781 260 L 979 260 L 979 810 L 266.300781 810 Z M 266.300781 260 " clip-rule="nonzero"/></clipPath><clipPath id="f55fcb2666"><path d="M 407 22 L 1236.050781 22 L 1236.050781 694 L 407 694 Z M 407 22 " clip-rule="nonzero"/></clipPath></defs><g clip-path="url(#0e8eee9d18)"><path fill="#c08625" d="M 555.390625 504.640625 C 542.273438 494.421875 522.988281 496.285156 510.003906 505.863281 C 495.539062 516.46875 489.5625 534.855469 488.210938 552.019531 C 486.988281 568.21875 490.527344 586.539062 503.703125 597.402344 C 516.882812 608.269531 536.746094 608.460938 552.367188 602.03125 C 569.597656 594.960938 581.679688 579.984375 590.101562 563.847656 C 594.601562 555.234375 599.746094 545.527344 601.09375 535.882812 C 602.445312 526.242188 598.203125 518.527344 591.902344 511.839844 C 572.425781 491.269531 538.226562 489.664062 513.925781 501.8125 C 501.710938 507.917969 491.554688 518.140625 487.117188 531.191406 C 482.683594 544.242188 484.675781 559.347656 490.78125 571.882812 C 504.476562 600.039062 541.375 617.847656 570.429688 600.8125 C 578.339844 596.183594 583.417969 588.917969 587.273438 580.820312 C 591.132812 572.71875 594.28125 564.617188 596.851562 556.199219 C 601.675781 540.640625 604.632812 523.539062 601.160156 507.339844 C 593.058594 469.347656 549.28125 459 516.304688 469.15625 C 485.253906 478.734375 457.871094 505.796875 454.71875 539.160156 C 451.570312 572.527344 474.324219 604.347656 503.640625 618.296875 C 520.03125 626.074219 540.089844 629.480469 557.703125 623.953125 C 575.316406 618.425781 586.824219 601.839844 595.953125 585.832031 C 605.789062 568.605469 614.59375 549.449219 615.238281 529.328125 C 615.816406 511.261719 608.167969 494.613281 594.28125 483.042969 C 580.394531 471.46875 564.066406 465.554688 547.480469 460.863281 C 530.898438 456.171875 510.710938 450.0625 493.867188 456.683594 C 477.027344 463.304688 472.847656 483.042969 469.054688 499.175781 C 465.261719 515.3125 462.304688 532.605469 463.460938 549.511719 C 464.554688 565.132812 469.441406 580.433594 480.304688 592.066406 C 491.941406 604.539062 508.589844 610.582031 525.433594 610.839844 C 542.273438 611.097656 559.761719 605.503906 573.003906 594.640625 C 586.246094 583.777344 595.4375 567.769531 599.039062 550.863281 C 602.445312 535.046875 602.703125 514.285156 592.546875 500.71875 C 581.039062 485.421875 558.21875 486.769531 541.246094 488.503906 C 522.859375 490.433594 504.796875 496.476562 493.097656 511.519531 C 483.519531 523.863281 479.019531 540.320312 482.746094 555.683594 C 490.203125 586.410156 529.289062 601.839844 557.125 589.367188 C 584.960938 576.898438 595.824219 536.71875 571.589844 515.25 C 559.890625 504.898438 543.238281 500.527344 527.941406 502.96875 C 512.640625 505.414062 499.074219 515.957031 492.90625 530.613281 C 487.117188 544.433594 488.339844 560.761719 497.660156 572.71875 C 506.984375 584.675781 522.988281 591.617188 538.289062 591.746094 C 555.453125 591.875 570.945312 582.746094 580.332031 568.539062 C 590.550781 553.046875 592.09375 533.953125 587.53125 516.277344 C 582.96875 498.597656 572.554688 480.148438 559.824219 465.941406 C 548.125 452.828125 533.082031 441.964844 515.789062 437.914062 C 481.589844 429.878906 451.246094 451.285156 435.175781 480.214844 C 418.71875 509.847656 416.277344 546.425781 425.210938 578.824219 C 434.664062 612.898438 457.996094 641.503906 490.847656 655.195312 C 523.695312 668.886719 563.808594 668.246094 596.851562 653.589844 C 629.894531 638.933594 654.964844 611.097656 667.953125 578.054688 C 680.359375 546.425781 679.652344 511.519531 667.050781 480.085938 C 641.59375 416.699219 575.894531 374.273438 507.625 378.644531 C 442.632812 382.820312 376.097656 425.890625 357.84375 490.5625 C 351.800781 512.035156 350.835938 534.597656 351.734375 556.710938 C 352.636719 578.824219 355.269531 601.453125 360.347656 623.246094 C 362.855469 633.789062 365.878906 644.265625 369.671875 654.425781 C 373.464844 664.582031 377.257812 674.222656 382.914062 683.03125 C 394.355469 700.710938 414.15625 705.917969 433.121094 712.085938 C 475.355469 725.78125 519.902344 738.445312 564.644531 731.371094 C 599.9375 725.78125 632.789062 707.972656 658.050781 682.839844 C 684.535156 656.546875 701.828125 622.601562 708.195312 585.832031 C 715.394531 544.046875 709.09375 500.589844 693.601562 461.3125 C 686.464844 443.25 677.464844 425.890625 665.574219 410.464844 C 653.679688 395.035156 638.058594 381.859375 620.574219 372.152344 C 603.089844 362.445312 582.386719 354.664062 562.589844 348.109375 C 542.789062 341.550781 522.152344 336.152344 501.324219 333.128906 C 462.242188 327.410156 420.777344 329.980469 386 350.292969 C 354.820312 368.421875 332.386719 398.507812 319.207031 431.679688 C 302.878906 472.949219 301.65625 518.332031 302.878906 562.113281 C 303.972656 601.195312 305 641.375 316.25 679.175781 C 321.648438 697.238281 329.558594 714.660156 340.742188 729.957031 C 351.929688 745.257812 365.75 757.664062 381.5 767.757812 C 415.503906 789.484375 456.003906 798.871094 495.988281 799.773438 C 518.683594 800.285156 541.4375 798.164062 563.808594 794.4375 C 586.179688 790.707031 606.882812 786.207031 627.582031 779.265625 C 646.414062 772.964844 664.671875 764.09375 679.265625 750.335938 C 693.859375 736.578125 703.566406 719.929688 711.152344 702.125 C 740.464844 633.082031 738.792969 551.183594 705.492188 483.878906 C 672.773438 417.855469 609.839844 371.121094 538.738281 353.699219 C 503.125 344.957031 465.519531 343.738281 429.648438 351.515625 C 395.640625 358.90625 363.691406 374.851562 336.949219 396.964844 C 310.851562 418.5 289.636719 446.269531 277.292969 477.835938 C 271.378906 493.003906 267.585938 509.078125 266.429688 525.339844 C 264.824219 547.261719 268.292969 569.117188 272.40625 590.589844 C 279.480469 627.101562 286.808594 664.195312 301.527344 698.523438 C 316.25 732.851562 339.070312 762.230469 371.535156 780.871094 C 404 799.515625 444.496094 807.613281 482.875 809.285156 C 527.230469 811.277344 572.101562 806.199219 615.109375 795.335938 C 636.128906 790 657.023438 783.445312 676.953125 774.828125 C 695.273438 766.921875 711.921875 756.25 722.980469 739.214844 C 733.007812 723.722656 738.730469 705.335938 743.164062 687.53125 C 747.148438 671.589844 749.722656 655.195312 750.878906 638.804688 C 755.699219 571.882812 737.1875 504.0625 701.636719 447.363281 C 662.9375 385.648438 603.730469 337.117188 534.6875 313.265625 C 495.863281 299.832031 454.011719 295.074219 413.511719 302.722656 C 373.011719 310.371094 338.683594 328.5 313.292969 358.777344 C 289.316406 387.386719 275.878906 423.515625 271.1875 460.285156 C 265.207031 506.761719 272.535156 553.691406 280.957031 599.398438 C 287.773438 636.488281 295.230469 674.609375 313.742188 707.910156 C 332.257812 741.207031 359.128906 763.066406 392.941406 776.113281 C 426.753906 789.164062 464.296875 792.378906 500.488281 790.964844 C 541.3125 789.359375 582.386719 782.414062 621.730469 771.613281 C 665.765625 759.53125 706.265625 739.34375 745.992188 717.359375 C 787.261719 694.472656 828.40625 671.394531 869.613281 648.382812 C 887.097656 638.609375 904.519531 628.582031 920.203125 616.046875 C 935.890625 603.511719 949.390625 587.695312 958.519531 569.246094 C 975.230469 535.304688 981.015625 496.992188 977.867188 459.382812 C 971.761719 386.742188 937.238281 316.738281 891.148438 261.195312 C 889.21875 258.882812 885.941406 262.222656 887.867188 264.472656 C 933.125 319.050781 967.195312 388.09375 973.238281 459.382812 C 976.261719 495 971.183594 531.125 956.011719 563.71875 C 947.71875 581.523438 935.953125 596.761719 921.039062 609.425781 C 906.125 622.089844 889.863281 631.667969 873.210938 641.054688 C 834.960938 662.71875 796.457031 683.929688 758.078125 705.402344 C 719.699219 726.871094 684.023438 746.609375 643.78125 760.171875 C 605.660156 772.964844 565.351562 780.871094 525.367188 784.730469 C 490.976562 788.007812 455.683594 787.878906 421.871094 780.101562 C 388.054688 772.320312 358.355469 757.34375 336.050781 731.824219 C 312.328125 704.757812 300.757812 669.722656 292.914062 635.203125 C 288.609375 616.304688 285.199219 597.210938 281.921875 578.117188 C 278.195312 556.195312 275.171875 534.148438 274.144531 511.96875 C 272.34375 473.398438 276.90625 434.121094 293.492188 398.894531 C 309.113281 365.59375 334.699219 338.59375 367.871094 322.523438 C 401.042969 306.453125 441.414062 300.921875 479.019531 305.230469 C 551.082031 313.457031 618.710938 353.636719 666.214844 407.570312 C 708.128906 455.140625 736.09375 515.246094 744.515625 578.183594 C 748.628906 609.039062 748.050781 640.601562 742.136719 671.203125 C 739.050781 687.210938 734.742188 703.214844 728.636719 718.324219 C 721.113281 736.773438 709.609375 751.878906 692.378906 762.101562 C 675.152344 772.320312 655.480469 778.816406 636.386719 784.664062 C 616.332031 790.835938 595.824219 795.59375 575.125 799 C 535.523438 805.492188 494.511719 807.421875 454.65625 802.277344 C 418.460938 797.585938 381.691406 786.144531 353.148438 762.550781 C 326.34375 740.371094 309.4375 709.453125 298.316406 676.921875 C 292.851562 660.851562 288.609375 644.460938 284.945312 627.9375 C 280.699219 608.976562 276.652344 589.945312 273.695312 570.726562 C 270.738281 551.503906 269.515625 532.15625 272.601562 512.933594 C 275.042969 497.570312 279.800781 482.589844 286.488281 468.578125 C 314.449219 409.5 373.140625 366.878906 436.914062 354.859375 C 504.796875 342.066406 577.117188 361.671875 632.015625 402.75 C 686.914062 443.828125 722.914062 512.804688 726.898438 583.710938 C 728.894531 619.195312 723.6875 655.003906 711.664062 688.429688 C 705.429688 705.789062 697.199219 722.824219 685.371094 737.160156 C 673.542969 751.492188 657.023438 762.742188 639.214844 770.136719 C 621.410156 777.527344 601.546875 782.351562 582.261719 786.402344 C 560.917969 790.835938 539.253906 793.984375 517.460938 795.015625 C 478.117188 796.816406 437.941406 791.414062 402.199219 774.121094 C 369.285156 758.179688 343.058594 732.722656 328.335938 699.039062 C 313.613281 665.351562 310.273438 628.261719 308.601562 592.132812 C 305.128906 516.789062 303.777344 430.519531 362.535156 374.015625 C 421.292969 317.507812 507.816406 332.9375 576.859375 358.199219 C 595.824219 365.144531 614.660156 373.050781 631.375 384.492188 C 647.1875 395.355469 660.238281 409.691406 670.523438 425.890625 C 691.285156 458.550781 703.4375 497.890625 706.007812 536.460938 C 708.578125 575.03125 700.929688 613.539062 681 646.386719 C 663.707031 674.867188 638.125 698.265625 608.230469 712.859375 C 572.9375 730.085938 534.046875 731.953125 495.863281 724.621094 C 474.648438 720.574219 454.011719 714.207031 433.503906 707.523438 C 423.925781 704.4375 414.027344 701.671875 405.027344 697.109375 C 396.027344 692.542969 389.339844 685.730469 384.390625 676.859375 C 374.429688 658.988281 368.257812 638.480469 363.886719 618.554688 C 359.515625 598.625 357.070312 577.089844 356.234375 556.132812 C 355.398438 535.175781 356.234375 513.320312 361.957031 492.683594 C 366.070312 477.769531 373.011719 463.820312 382.011719 451.285156 C 419.042969 399.726562 489.304688 372.664062 551.273438 386.742188 C 613.246094 400.820312 666.214844 455.589844 671.808594 519.8125 C 674.699219 552.789062 663.773438 586.023438 643.203125 611.738281 C 621.34375 639.125 589.394531 656.675781 554.488281 659.953125 C 519.582031 663.230469 484.160156 653.589844 459.21875 629.160156 C 434.277344 604.730469 423.863281 570.984375 424.761719 537.425781 C 425.597656 506.121094 437.75 472.882812 463.65625 453.597656 C 476.382812 444.085938 492.070312 439.328125 507.945312 441.257812 C 525.496094 443.378906 541.054688 453.277344 553.140625 465.683594 C 577.4375 490.625 597.6875 533.632812 576.21875 566.226562 C 566.832031 580.496094 550.890625 588.46875 533.855469 586.925781 C 518.8125 585.574219 503.320312 577.027344 496.890625 562.882812 C 490.460938 548.738281 494.445312 531.382812 504.796875 520.132812 C 515.726562 508.242188 532.695312 504.640625 548.058594 508.433594 C 563.425781 512.226562 576.152344 522.382812 579.558594 537.746094 C 582.773438 552.148438 576.925781 567.769531 566.253906 577.667969 C 543.367188 599.074219 499.910156 588.789062 488.597656 559.539062 C 483.003906 545.011719 486.410156 528.296875 495.410156 515.890625 C 506.726562 500.207031 525.367188 494.484375 543.882812 492.941406 C 562.394531 491.398438 585.152344 490.882812 592.675781 511.070312 C 598.523438 526.625 596.789062 545.527344 591.066406 560.890625 C 585.34375 576.253906 573.582031 590.847656 558.28125 598.6875 C 542.980469 606.53125 525.367188 608.460938 509.167969 604.152344 C 492.96875 599.847656 480.367188 589.238281 473.617188 574.324219 C 466.867188 559.410156 466.742188 543.597656 468.285156 528.234375 C 469.824219 512.871094 473.425781 495.382812 478.824219 480.148438 C 482.039062 471.148438 487.570312 463.5 497.019531 460.476562 C 505.695312 457.714844 515.210938 458.546875 524.019531 460.15625 C 540.601562 463.175781 557.640625 467.933594 572.808594 475.261719 C 587.980469 482.589844 601.609375 493.390625 607.332031 509.527344 C 613.953125 528.234375 608.421875 548.675781 600.582031 566.097656 C 596.660156 574.839844 591.96875 583.195312 586.953125 591.359375 C 582.261719 599.011719 576.988281 606.46875 569.917969 612.125 C 554.808594 624.144531 533.402344 623.890625 515.789062 618.296875 C 500.167969 613.347656 486.21875 603.640625 475.867188 590.910156 C 465.519531 578.183594 459.21875 563.269531 458.703125 547.324219 C 458.191406 531.382812 464.039062 515.953125 473.746094 503.484375 C 494.574219 476.613281 532.632812 462.40625 565.351562 473.976562 C 581.808594 479.761719 593.382812 493.003906 596.59375 510.167969 C 599.550781 526.046875 596.082031 542.699219 591.066406 557.738281 C 585.601562 574.390625 578.917969 593.675781 560.851562 599.910156 C 545.683594 605.183594 528.710938 602.417969 515.402344 593.675781 C 492.453125 578.632812 479.660156 545.203125 496.953125 521.289062 C 512.832031 499.304688 546.519531 493.648438 570.753906 503.417969 C 576.988281 505.925781 582.773438 509.65625 587.53125 514.414062 C 590.617188 517.496094 593.445312 521.160156 595.050781 525.277344 C 597.109375 530.613281 596.273438 536.140625 594.539062 541.476562 C 588.945312 558.574219 579.046875 576.511719 565.289062 588.339844 C 552.367188 599.460938 533.339844 605.246094 516.753906 599.652344 C 500.167969 594.0625 492.96875 577.539062 492.261719 561.210938 C 491.554688 544.882812 495.539062 526.496094 506.984375 514.285156 C 518.425781 502.070312 538.289062 497.441406 551.660156 507.917969 C 553.976562 509.71875 557.316406 506.441406 554.9375 504.640625 Z M 555.390625 504.640625 " fill-opacity="1" fill-rule="nonzero"/></g><g clip-path="url(#f55fcb2666)"><path fill="#c08625" d="M 411.199219 304.78125 C 463.71875 281.445312 520.289062 266.789062 576.410156 255.089844 C 632.980469 243.261719 690.707031 234.261719 748.4375 231.367188 C 805.96875 228.410156 872.953125 234.582031 907.667969 287.101562 C 923.484375 311.082031 930.941406 339.429688 937.304688 367.136719 C 945.402344 402.234375 952.152344 437.65625 956.78125 473.398438 C 959.097656 491.269531 961.28125 509.335938 962.183594 527.332031 C 963.082031 545.332031 960.0625 560.953125 948.683594 574.582031 C 938.398438 586.988281 924.769531 596.441406 911.203125 604.925781 C 897.640625 613.410156 881.953125 621.382812 866.398438 627.425781 C 858.683594 630.445312 850.777344 633.082031 842.804688 635.460938 L 845.632812 638.289062 C 862.734375 553.753906 861.320312 460.800781 812.398438 386.550781 C 791.957031 355.566406 764.507812 329.015625 731.914062 311.015625 C 714.234375 301.246094 695.207031 294.238281 675.472656 289.996094 C 652.332031 284.980469 628.671875 283.246094 605.082031 282.023438 C 558.476562 279.644531 507.691406 277.074219 465.710938 301.050781 L 468.539062 304.714844 C 505.246094 273.089844 552.945312 255.925781 600.902344 252.261719 C 648.859375 248.59375 698.550781 257.851562 740.527344 281.832031 C 790.285156 310.308594 822.75 358.84375 852.960938 406.027344 C 869.804688 432.386719 884.269531 460.285156 895.199219 489.664062 C 905.417969 517.242188 914.867188 547.96875 910.113281 577.667969 C 905.355469 607.367188 884.332031 627.746094 861.382812 645.101562 C 838.433594 662.460938 814.777344 680.972656 786.8125 687.339844 C 779.550781 689.007812 772.222656 689.589844 764.828125 689.136719 L 766.820312 692.609375 C 804.171875 630.1875 809.957031 552.535156 781.671875 485.421875 C 767.335938 451.476562 745.929688 421.007812 721.757812 393.363281 C 697.585938 365.722656 671.679688 340.84375 639.792969 323.746094 C 604.117188 304.652344 560.660156 296.746094 521.703125 310.246094 L 524.53125 311.851562 C 519.066406 296.808594 524.019531 279.902344 535.589844 269.101562 C 549.601562 256.050781 570.496094 256.824219 587.53125 250.265625 C 617.875 238.566406 638.574219 211.953125 653.550781 184.117188 C 668.53125 156.28125 679.328125 123.691406 698.035156 96.433594 C 707.421875 82.742188 719.058594 70.398438 733.265625 61.589844 C 749.59375 51.5625 768.429688 46.871094 787.390625 45.390625 C 806.355469 43.914062 826.15625 45.390625 845.375 47.386719 C 866.847656 49.632812 888.320312 52.335938 909.726562 54.777344 C 931.132812 57.21875 953.890625 59.921875 976.003906 62.492188 C 985.003906 63.519531 996.894531 63.328125 1002.808594 71.425781 C 1006.796875 76.890625 1006.796875 84.285156 1006.410156 90.710938 C 1005.574219 105.691406 1001.972656 120.347656 1009.109375 134.425781 C 1016.246094 148.503906 1031.160156 158.789062 1046.265625 164.320312 C 1064.652344 171.003906 1085.03125 172.933594 1104.445312 174.476562 C 1120.066406 175.695312 1139.734375 175.117188 1150.148438 161.425781 C 1154.007812 156.347656 1156.386719 149.789062 1156 143.363281 C 1155.613281 138.15625 1152.785156 130.632812 1147.386719 128.578125 C 1145.777344 127.933594 1144.429688 128.703125 1142.820312 129.089844 C 1140.507812 129.734375 1138.128906 130.246094 1135.75 130.761719 C 1130.285156 131.917969 1124.695312 132.820312 1119.101562 133.332031 C 1108.945312 134.296875 1098.722656 134.363281 1088.566406 133.460938 C 1078.410156 132.5625 1067.738281 130.699219 1057.835938 127.546875 C 1054.6875 126.582031 1051.921875 125.105469 1051.472656 121.503906 C 1051.152344 118.613281 1052.695312 115.847656 1055.203125 114.496094 C 1058.996094 112.503906 1065.039062 112.828125 1069.152344 112.632812 C 1074.164062 112.375 1079.179688 112.3125 1084.195312 112.503906 C 1094.222656 112.828125 1104.25 114.113281 1114.023438 116.296875 C 1123.792969 118.484375 1133.757812 121.699219 1143.078125 125.8125 L 1143.078125 121.828125 C 1104.828125 148.183594 1053.59375 132.882812 1013.417969 119.511719 L 1015.023438 121.121094 C 1011.296875 110.191406 1028.460938 105.949219 1036.046875 104.855469 C 1042.601562 103.957031 1049.480469 104.210938 1056.101562 104.210938 C 1063.75 104.210938 1071.464844 104.210938 1079.117188 104.789062 C 1106.757812 106.589844 1136.457031 114.242188 1153.042969 138.28125 C 1160.820312 149.597656 1164.421875 163.355469 1159.984375 176.726562 C 1159.277344 178.847656 1161.722656 180.132812 1163.394531 179.359375 C 1182.613281 170.488281 1206.207031 181.609375 1217.457031 198.132812 C 1231.46875 218.765625 1230.183594 245.636719 1230.3125 269.488281 C 1230.632812 325.867188 1230.957031 382.179688 1231.277344 438.554688 C 1231.339844 452.699219 1231.40625 466.84375 1231.535156 481.046875 C 1231.597656 494.484375 1231.984375 507.984375 1231.277344 521.355469 C 1230.570312 534.726562 1228.578125 547.199219 1223.433594 559.15625 C 1219.320312 568.863281 1213.40625 577.796875 1206.398438 585.640625 C 1173.808594 622.28125 1123.664062 634.816406 1076.671875 639.125 C 1049.609375 641.632812 1022.289062 642.144531 995.097656 642.46875 C 967.902344 642.789062 938.71875 642.597656 910.496094 641.761719 C 903.554688 641.566406 896.675781 641.308594 889.734375 640.988281 L 891.726562 644.460938 C 897.898438 631.152344 911.203125 624.726562 924.898438 621.574219 C 940.132812 618.101562 955.753906 618.296875 971.246094 618.683594 C 1014.316406 619.773438 1057.453125 620.804688 1100.523438 621.894531 C 1110.679688 622.152344 1121.027344 622.988281 1131.1875 622.28125 C 1138.898438 621.769531 1146.230469 619.644531 1152.398438 614.824219 C 1163.777344 605.890625 1168.472656 590.910156 1170.976562 577.21875 C 1178.308594 536.785156 1178.949219 495 1177.664062 454.050781 C 1176.378906 413.101562 1172.519531 369.449219 1169.242188 327.214844 C 1167.570312 305.359375 1165.835938 283.503906 1164.164062 261.644531 C 1163.328125 250.972656 1162.492188 240.304688 1161.65625 229.632812 C 1161.078125 221.851562 1161.527344 212.339844 1156.515625 205.847656 C 1151.949219 199.933594 1144.363281 198.390625 1137.292969 197.746094 C 1127.199219 196.847656 1117.042969 196.78125 1106.949219 196.394531 C 1085.09375 195.5625 1063.171875 194.917969 1041.316406 194.402344 C 998.375 193.375 955.367188 192.988281 912.363281 193.183594 C 869.355469 193.375 826.414062 194.144531 783.472656 195.5625 C 761.808594 196.269531 740.207031 197.425781 718.609375 198.066406 C 700.09375 198.582031 679.652344 197.683594 664.609375 185.402344 C 658.4375 180.390625 653.9375 173.898438 652.457031 166.054688 L 650.207031 169.011719 C 714.042969 172.738281 778.007812 173.832031 841.96875 174.988281 C 912.425781 176.273438 982.816406 177.046875 1053.273438 178.976562 C 1087.214844 179.875 1121.15625 181.03125 1155.101562 183.023438 L 1153.429688 179.039062 C 1142.371094 188.683594 1129.066406 196.140625 1116.65625 203.851562 C 1100.523438 213.882812 1084.257812 223.910156 1068.894531 235.222656 C 1057.257812 243.773438 1044.082031 253.609375 1037.136719 266.660156 C 1034.757812 271.160156 1033.214844 276.238281 1034.246094 281.378906 C 1036.300781 291.601562 1044.917969 299.316406 1054.816406 301.4375 C 1069.34375 304.585938 1084.902344 305.101562 1099.6875 305.101562 C 1114.472656 305.101562 1130.285156 303.816406 1145.328125 301.308594 C 1148.09375 300.859375 1152.078125 300.859375 1154.265625 298.996094 C 1156 297.515625 1157.414062 295.265625 1158.507812 293.335938 C 1160.757812 289.09375 1161.65625 284.273438 1161.269531 279.515625 C 1160.5625 269.421875 1155.101562 259.84375 1147.257812 253.609375 C 1125.464844 236.382812 1094.160156 242.808594 1068.894531 244.996094 C 1065.359375 245.316406 1061.824219 245.574219 1058.222656 245.636719 C 1054.625 245.703125 1050.894531 245.382812 1047.359375 245.765625 C 1042.601562 246.34375 1038.101562 248.851562 1035.464844 252.902344 C 1029.039062 262.738281 1038.039062 272.960938 1045.753906 278.746094 C 1056.617188 286.910156 1070.757812 289.09375 1084 289.867188 C 1097.886719 290.636719 1112.351562 290.832031 1126.171875 289.160156 C 1138.191406 287.746094 1150.792969 284.402344 1160.050781 276.238281 C 1167.765625 269.421875 1173.550781 259.074219 1172.972656 248.53125 C 1172.714844 243.644531 1171.042969 239.082031 1168.148438 235.222656 L 1166.15625 238.695312 C 1187.757812 238.179688 1209.355469 237.730469 1230.957031 237.21875 L 1229.285156 233.230469 C 1210.449219 252.386719 1183.449219 261.964844 1156.773438 260.425781 C 1154.199219 260.296875 1153.558594 264.472656 1156.128906 264.988281 C 1177.921875 269.167969 1207.492188 258.109375 1214.175781 235.03125 C 1221.828125 208.675781 1192.320312 194.019531 1173.808594 183.605469 C 1161.144531 176.46875 1150.214844 167.855469 1140.507812 156.988281 C 1130.800781 146.125 1122.1875 133.847656 1112.671875 122.597656 C 1103.867188 112.183594 1094.160156 102.796875 1082.652344 95.40625 C 1071.851562 88.398438 1060.214844 82.933594 1048.582031 77.40625 C 1025.179688 66.285156 996.574219 54.132812 987.316406 27.714844 C 986.996094 26.75 986.160156 26.042969 985.066406 25.976562 C 915.832031 25.011719 846.535156 24.113281 777.300781 23.148438 C 757.757812 22.890625 738.277344 22.636719 718.734375 22.378906 C 715.777344 22.378906 715.714844 27.007812 718.734375 27.007812 C 787.972656 27.972656 857.269531 28.871094 926.503906 29.835938 C 946.046875 30.09375 965.523438 30.347656 985.066406 30.605469 L 982.816406 28.871094 C 990.273438 50.277344 1009.558594 63.003906 1028.84375 72.90625 C 1050.636719 84.089844 1074.488281 92.640625 1093.128906 108.96875 C 1114.152344 127.417969 1127.523438 152.8125 1148.285156 171.519531 C 1158.058594 180.324219 1169.371094 186.367188 1180.75 192.796875 C 1191.097656 198.644531 1202.734375 205.332031 1208.007812 216.582031 C 1214.050781 229.375 1207.8125 242.359375 1197.269531 250.460938 C 1186.148438 259.074219 1171.042969 263.125 1157.15625 260.425781 L 1156.515625 264.988281 C 1184.351562 266.59375 1212.699219 256.4375 1232.304688 236.445312 C 1233.65625 235.03125 1232.691406 232.460938 1230.632812 232.460938 C 1209.035156 232.972656 1187.433594 233.425781 1165.835938 233.9375 C 1164.230469 233.9375 1162.75 235.929688 1163.84375 237.410156 C 1169.949219 245.703125 1168.726562 256.050781 1163.519531 264.472656 C 1157.351562 274.503906 1146.9375 279.902344 1135.816406 282.601562 C 1123.921875 285.496094 1111.449219 285.496094 1099.300781 285.429688 C 1087.152344 285.367188 1073.714844 285.367188 1061.566406 281.507812 C 1055.394531 279.582031 1049.609375 276.558594 1044.851562 272.058594 C 1041.1875 268.589844 1036.429688 263.507812 1037.910156 257.980469 C 1039.386719 252.453125 1045.109375 250.074219 1050.445312 250.136719 C 1057.324219 250.203125 1064.136719 249.882812 1070.953125 249.238281 C 1094.09375 247.050781 1121.929688 241.652344 1142.5 255.796875 C 1150.535156 261.324219 1156.320312 270.964844 1156.515625 280.800781 C 1156.578125 285.238281 1155.421875 289.738281 1152.722656 293.335938 C 1150.730469 296.039062 1147.835938 296.039062 1144.6875 296.550781 C 1140.828125 297.195312 1137.035156 297.773438 1133.179688 298.222656 C 1119.742188 299.894531 1106.179688 300.539062 1092.617188 300.214844 C 1085.738281 300.085938 1078.792969 299.636719 1071.914062 298.996094 C 1065.550781 298.351562 1058.738281 297.964844 1052.628906 296.039062 C 1045.238281 293.660156 1038.039062 285.429688 1038.359375 277.265625 C 1038.550781 272.636719 1040.996094 268.394531 1043.566406 264.667969 C 1051.472656 253.417969 1063.238281 244.675781 1074.292969 236.765625 C 1098.980469 219.023438 1126.363281 205.074219 1150.730469 186.882812 C 1152.722656 185.402344 1154.648438 183.859375 1156.515625 182.253906 C 1158.121094 180.839844 1156.707031 178.398438 1154.84375 178.269531 C 1091.007812 174.539062 1027.046875 173.445312 963.082031 172.289062 C 892.625 171.003906 822.234375 170.234375 751.777344 168.304688 C 717.835938 167.402344 683.894531 166.246094 649.953125 164.253906 C 648.34375 164.191406 647.445312 165.796875 647.703125 167.210938 C 650.464844 181.933594 663 192.28125 676.371094 197.488281 C 694.695312 204.6875 715.265625 202.824219 734.421875 201.988281 C 777.363281 200.125 820.304688 198.902344 863.3125 198.261719 C 948.746094 196.976562 1034.179688 198.066406 1119.550781 201.539062 C 1128.421875 201.925781 1139.09375 200.960938 1147.386719 204.625 C 1156.964844 208.933594 1156.128906 220.761719 1156.835938 229.632812 C 1158.507812 250.972656 1160.113281 272.253906 1161.785156 293.59375 C 1165.0625 336.085938 1168.792969 378.515625 1171.234375 421.070312 C 1173.679688 462.984375 1174.515625 505.15625 1170.144531 547.003906 C 1168.40625 563.847656 1167.1875 582.683594 1159.472656 598.109375 C 1156.191406 604.667969 1151.5 610.519531 1144.945312 613.988281 C 1136.136719 618.617188 1125.851562 617.847656 1116.273438 617.589844 C 1073.714844 616.5625 1031.160156 615.46875 988.601562 614.4375 C 971.4375 613.988281 954.148438 612.894531 937.046875 614.824219 C 923.738281 616.304688 909.726562 619.453125 898.925781 627.808594 C 894.039062 631.601562 890.117188 636.425781 887.484375 642.082031 C 886.710938 643.6875 887.613281 645.488281 889.476562 645.554688 C 947.652344 647.929688 1006.34375 648.636719 1064.460938 644.589844 C 1113.636719 641.179688 1165.898438 630.960938 1202.800781 595.667969 C 1219.320312 579.855469 1230.507812 559.925781 1234.042969 537.167969 C 1236.097656 523.863281 1236.097656 510.363281 1236.035156 496.925781 C 1235.96875 482.269531 1235.839844 467.550781 1235.777344 452.890625 C 1235.457031 393.363281 1235.132812 333.773438 1234.8125 274.246094 C 1234.683594 249.625 1236.226562 222.882812 1224.140625 200.511719 C 1214.757812 183.152344 1194.828125 170.105469 1174.707031 171.648438 C 1169.886719 172.03125 1165.257812 173.253906 1160.886719 175.3125 L 1164.292969 177.945312 C 1171.492188 156.410156 1159.601562 134.363281 1142.949219 120.925781 C 1122.507812 104.40625 1095.1875 100.417969 1069.667969 99.710938 C 1057.324219 99.390625 1044.082031 98.492188 1031.929688 100.871094 C 1024.152344 102.414062 1013.351562 105.949219 1010.332031 114.242188 C 1009.300781 117.070312 1009.046875 122.019531 1011.808594 123.820312 C 1014.058594 125.363281 1017.917969 125.875 1020.550781 126.710938 C 1023.636719 127.675781 1026.722656 128.640625 1029.875 129.605469 C 1042.214844 133.269531 1054.753906 136.417969 1067.480469 138.410156 C 1094.03125 142.589844 1122.445312 141.496094 1145.328125 125.746094 C 1146.613281 124.847656 1147.066406 122.535156 1145.328125 121.761719 C 1127.070312 113.726562 1107.59375 109.097656 1087.664062 107.941406 C 1077.574219 107.363281 1067.03125 107.363281 1057.066406 109.035156 C 1051.730469 109.933594 1047.421875 113.789062 1046.78125 119.253906 C 1046.136719 124.71875 1049.480469 129.539062 1054.625 131.40625 C 1063.945312 134.8125 1074.230469 136.417969 1084.066406 137.574219 C 1093.902344 138.734375 1104.445312 138.988281 1114.601562 138.28125 C 1119.421875 137.960938 1124.179688 137.382812 1128.9375 136.613281 C 1131.570312 136.160156 1134.207031 135.710938 1136.777344 135.132812 C 1137.742188 134.941406 1138.644531 134.746094 1139.609375 134.492188 C 1141.023438 134.167969 1143.851562 132.820312 1145.265625 133.074219 C 1147.964844 133.589844 1150.023438 137.769531 1150.730469 140.339844 C 1151.691406 143.8125 1151.308594 147.476562 1150.277344 150.882812 C 1147.773438 159.046875 1141.40625 164.574219 1133.5 167.339844 C 1124.179688 170.554688 1114.085938 170.488281 1104.378906 169.71875 C 1094.671875 168.945312 1084 167.789062 1073.972656 166.183594 C 1054.816406 163.160156 1035.015625 157.570312 1021.195312 143.234375 C 1015.023438 136.804688 1010.332031 128.703125 1009.367188 119.703125 C 1008.59375 112.3125 1009.6875 104.855469 1010.460938 97.527344 C 1011.746094 84.414062 1012.261719 68.535156 998.308594 61.976562 C 989.761719 57.925781 978.894531 58.121094 969.640625 57.027344 C 958.066406 55.675781 946.496094 54.328125 934.925781 52.976562 C 912.554688 50.40625 890.246094 47.769531 867.875 45.199219 C 847.949219 42.882812 828.019531 40.378906 807.898438 40.054688 C 787.777344 39.734375 769.394531 41.40625 751.328125 47.835938 C 735 53.554688 720.472656 63.199219 708.578125 75.734375 C 685.179688 100.417969 672.902344 132.625 658.824219 162.902344 C 644.746094 193.183594 627.324219 223.140625 598.203125 239.851562 C 590.230469 244.417969 581.617188 247.566406 572.683594 249.6875 C 563.746094 251.808594 553.976562 253.351562 545.167969 257.210938 C 531.023438 263.382812 520.546875 276.625 518.039062 291.921875 C 516.882812 298.996094 517.460938 306.195312 519.96875 312.945312 C 520.355469 314.039062 521.574219 315 522.796875 314.550781 C 557.1875 302.59375 595.632812 307.800781 628.160156 322.972656 C 660.6875 338.144531 686.914062 361.800781 710.570312 387.707031 C 734.230469 413.613281 756.34375 442.929688 771.964844 475.132812 C 787.328125 506.890625 795.492188 541.605469 794.976562 576.960938 C 794.398438 616.753906 783.148438 655.902344 762.707031 690.039062 C 761.742188 691.644531 763.027344 693.445312 764.699219 693.507812 C 795.171875 695.308594 822.105469 678.789062 845.957031 661.753906 C 868.390625 645.746094 893.269531 628.773438 906.320312 603.640625 C 920.398438 576.382812 916.605469 544.433594 908.699219 515.957031 C 900.210938 485.546875 887.417969 456.234375 872.054688 428.722656 C 856.691406 401.207031 839.65625 375.363281 821.078125 350.550781 C 803.527344 327.214844 783.664062 305.292969 759.75 288.386719 C 719.1875 259.589844 668.59375 246.28125 619.160156 246.667969 C 569.722656 247.050781 519.453125 261.066406 479.148438 290.25 C 474.328125 293.722656 469.699219 297.386719 465.261719 301.246094 C 463.203125 302.980469 465.839844 306.195312 468.089844 304.910156 C 504.605469 284.015625 548.445312 284.082031 589.332031 285.75 C 633.171875 287.617188 678.109375 289.996094 718.351562 309.085938 C 751.523438 324.773438 780.0625 349.457031 801.664062 379.027344 C 824.871094 410.851562 839.527344 447.683594 846.339844 486.382812 C 855.148438 536.203125 851.164062 587.566406 841.199219 636.875 C 840.878906 638.546875 842.226562 640.28125 844.027344 639.703125 C 876.234375 630.253906 907.21875 615.210938 933.832031 594.640625 C 945.980469 585.191406 957.359375 573.875 962.953125 559.28125 C 969.253906 542.761719 966.8125 524.375 965.203125 507.210938 C 961.667969 469.734375 956.011719 432.386719 948.359375 395.550781 C 942.191406 365.65625 936.082031 334.929688 923.738281 306.902344 C 911.398438 278.875 892.753906 257.273438 866.011719 243.96875 C 839.269531 230.660156 808.671875 226.480469 779.035156 225.902344 C 750.042969 225.324219 720.984375 228.023438 692.1875 231.367188 C 661.972656 234.839844 631.953125 239.46875 602.058594 245.058594 C 542.46875 256.179688 482.683594 270.582031 426.304688 293.144531 C 420.457031 295.523438 414.605469 297.964844 408.820312 300.539062 C 406.121094 301.757812 408.433594 305.746094 411.132812 304.523438 Z M 411.199219 304.78125 " fill-opacity="1" fill-rule="nonzero"/></g><path fill="#c08625" d="M 564.132812 279.710938 C 507.753906 283.824219 451.570312 289.867188 395.578125 297.835938 C 379.636719 300.085938 363.691406 302.53125 347.8125 305.164062 L 350.769531 307.414062 C 353.726562 280.289062 356.941406 251.359375 372.628906 228.089844 C 386.511719 207.519531 410.425781 192.730469 435.820312 195.046875 L 433.570312 193.3125 C 438.839844 209.640625 424.632812 226.804688 408.371094 228.472656 C 403.871094 228.925781 397.378906 228.601562 394.871094 224.167969 C 392.683594 220.308594 395.257812 215.746094 397.570312 212.597656 C 403.484375 204.5625 413.511719 198.902344 422.253906 194.402344 C 431 189.902344 441.667969 186.945312 451.3125 190.738281 C 459.285156 193.824219 467.511719 202.117188 463.203125 211.183594 C 459.15625 219.667969 447.90625 223.523438 439.933594 226.933594 C 429.457031 231.367188 418.335938 235.609375 406.761719 235.867188 C 397.25 236.058594 388.3125 233.101562 381.757812 225.96875 C 375.777344 219.476562 373.269531 210.089844 379.378906 202.824219 C 385.484375 195.5625 395.578125 191.445312 403.675781 187.269531 C 412.675781 182.640625 421.871094 178.460938 431.191406 174.667969 C 469.117188 159.433594 509.488281 151.011719 549.988281 146.125 C 596.273438 140.597656 642.878906 139.503906 689.421875 138.667969 L 688.265625 134.363281 C 662.617188 145.484375 635.746094 153.648438 607.84375 156.539062 C 583.160156 159.113281 558.21875 157.890625 533.53125 156.476562 C 516.433594 155.445312 499.398438 154.355469 482.296875 153.648438 C 479.277344 153.519531 479.339844 158.019531 482.296875 158.277344 C 496.441406 159.625 509.8125 162.582031 523.117188 167.597656 C 535.203125 172.160156 547.226562 175.503906 560.082031 177.109375 C 574.289062 178.910156 590.617188 179.554688 602.253906 189.003906 C 607.460938 193.183594 610.480469 199.480469 608.746094 206.230469 C 606.558594 214.71875 598.460938 220.632812 591.132812 224.683594 C 572.554688 234.96875 550.695312 238.566406 529.738281 235.867188 C 527.167969 235.546875 526.523438 240.046875 529.097656 240.429688 C 548.769531 243.195312 567.730469 225.324219 565.933594 205.332031 C 563.875 182.832031 542.597656 168.109375 522.730469 162.070312 C 508.140625 157.632812 492.710938 156.539062 477.539062 155.511719 L 478.699219 159.820312 C 513.28125 142.847656 551.339844 133.011719 589.84375 130.890625 C 618.644531 129.285156 656.894531 136.355469 675.214844 107.875 C 682.03125 97.269531 684.664062 84.542969 687.621094 72.457031 C 690.578125 60.371094 693.988281 46.804688 703.179688 37.484375 C 715.328125 25.140625 733.84375 24.433594 750.105469 24.304688 C 770.484375 24.179688 790.929688 24.179688 811.304688 24.113281 C 858.105469 23.984375 904.96875 23.855469 951.769531 23.726562 C 954.144531 23.726562 954.855469 20.640625 952.925781 19.421875 C 931.96875 5.855469 907.027344 1.226562 882.40625 0.265625 C 854.632812 -0.828125 826.734375 2.0625 799.027344 3.929688 C 783.597656 4.957031 768.171875 5.984375 752.742188 7.078125 C 745.027344 7.59375 737.3125 8.105469 729.601562 8.621094 C 723.6875 9.007812 717.128906 8.8125 711.601562 11.191406 C 704.078125 14.40625 701.765625 23.019531 708.066406 28.613281 C 714.941406 34.65625 725.808594 36.390625 734.613281 35.621094 C 796.199219 30.15625 857.914062 27.84375 919.691406 29.640625 C 950.675781 30.542969 981.660156 32.472656 1012.515625 35.300781 C 1025.375 36.457031 1040.609375 36.714844 1045.109375 51.242188 C 1048.195312 61.140625 1048.386719 71.296875 1055.910156 79.207031 C 1070.179688 94.121094 1094.414062 93.992188 1112.800781 100.226562 C 1133.886719 107.425781 1150.601562 123.046875 1162.234375 141.691406 C 1173.871094 160.332031 1180.8125 181.097656 1185.121094 202.246094 C 1191.164062 232.011719 1193.15625 262.480469 1194.378906 292.824219 C 1196.820312 354.730469 1198.171875 416.636719 1200.035156 478.542969 L 1201.449219 525.789062 C 1201.835938 537.683594 1202.285156 549.574219 1201.257812 561.46875 C 1200.292969 572.589844 1198.042969 583.902344 1192.707031 593.867188 C 1186.855469 604.796875 1177.40625 612.703125 1165.964844 617.394531 C 1153.234375 622.539062 1139.351562 624.46875 1125.851562 626.460938 C 1110.488281 628.773438 1095.058594 630.640625 1079.566406 632.054688 C 1048.902344 634.816406 1018.175781 635.71875 987.382812 634.882812 C 933.253906 633.402344 873.984375 627.296875 825.578125 656.996094 C 815.804688 662.972656 806.933594 670.429688 799.671875 679.238281 L 803.335938 682.066406 C 823.777344 633.851562 830.785156 580.691406 823.648438 528.746094 C 816.898438 479.570312 797.226562 432.898438 767.335938 393.300781 C 739.371094 356.207031 703.242188 325.480469 662.488281 303.238281 C 640.566406 291.28125 616.84375 280.738281 592.417969 275.273438 C 579.175781 272.316406 565.546875 271.09375 552.109375 272.960938 C 538.675781 274.824219 525.691406 279.839844 513.152344 285.300781 C 485.769531 297.195312 458.640625 309.667969 431.382812 321.878906 C 407.40625 332.617188 382.59375 342.453125 360.285156 356.464844 C 340.164062 369.128906 323.386719 385.84375 314.386719 408.214844 C 305.386719 430.585938 304.484375 456.171875 306.09375 480.277344 C 309.5 532.925781 319.914062 586.347656 341.386719 634.816406 C 360.800781 678.722656 390.304688 717.875 428.941406 746.609375 C 465.132812 773.542969 509.039062 790.835938 554.488281 789.613281 C 599.9375 788.394531 642.300781 774.25 676.824219 747.957031 C 684.664062 741.980469 691.929688 735.359375 698.488281 728.03125 C 700.480469 725.78125 697.199219 722.5 695.207031 724.75 C 667.5 756.058594 626.359375 774.378906 585.796875 781.707031 C 564.839844 785.5 542.980469 786.335938 521.898438 782.929688 C 500.8125 779.523438 478.761719 771.164062 459.347656 760.558594 C 419.683594 738.957031 386.707031 705.851562 363.5 667.28125 C 336.371094 622.347656 322.101562 571.046875 314.898438 519.363281 C 308.472656 472.949219 302.492188 416.894531 337.976562 380.121094 C 354.5625 362.894531 376.421875 351.902344 397.890625 342 C 423.21875 330.367188 448.804688 319.179688 474.261719 307.738281 C 487.375 301.886719 500.425781 295.972656 513.539062 290.1875 C 526.652344 284.402344 539.0625 279.515625 552.6875 277.523438 C 579.6875 273.601562 606.945312 282.796875 631.503906 293.273438 C 673.351562 311.144531 711.535156 337.695312 742.648438 370.992188 C 773.765625 404.292969 798.578125 446.207031 811.175781 491.140625 C 825.0625 540.578125 825.382812 593.675781 812.011719 643.238281 C 808.671875 655.644531 804.425781 667.859375 799.414062 679.6875 C 798.511719 681.875 801.214844 684.765625 803.078125 682.515625 C 838.433594 639.640625 900.082031 636.746094 951.1875 638.226562 C 981.46875 639.125 1011.617188 640.410156 1041.894531 639.125 C 1072.042969 637.902344 1102.066406 634.882812 1131.828125 630.1875 C 1155.421875 626.460938 1180.683594 621.511719 1194.570312 599.976562 C 1206.335938 581.652344 1207.042969 558.253906 1206.527344 537.167969 C 1205.113281 475.714844 1202.863281 414.257812 1201 352.800781 C 1200.097656 322.714844 1199.585938 292.566406 1197.527344 262.546875 C 1195.664062 235.804688 1192.769531 208.609375 1185.25 182.832031 C 1179.398438 162.710938 1170.59375 143.167969 1157.414062 126.777344 C 1144.234375 110.382812 1126.363281 98.621094 1105.730469 93.285156 C 1087.34375 88.527344 1059.507812 86.726562 1053.210938 64.933594 C 1050.316406 55.097656 1050.253906 43.65625 1041.058594 37.164062 C 1036.496094 33.949219 1030.839844 32.664062 1025.4375 31.957031 C 1018.300781 30.992188 1011.101562 30.476562 1003.96875 29.835938 C 942.960938 24.5625 881.632812 23.085938 820.433594 25.335938 C 805.070312 25.914062 789.707031 26.683594 774.40625 27.714844 C 766.757812 28.226562 759.105469 28.804688 751.394531 29.449219 C 744.644531 30.027344 737.828125 31.121094 731.078125 31.121094 C 725.9375 31.121094 720.535156 30.09375 715.90625 27.90625 C 712.820312 26.492188 707.742188 23.597656 709.285156 19.421875 C 711.601562 13.25 721.371094 13.765625 726.578125 13.441406 C 734.292969 12.929688 742.007812 12.414062 749.722656 11.898438 C 780 9.84375 810.34375 7.65625 840.621094 5.792969 C 866.207031 4.1875 892.433594 3.285156 917.503906 9.394531 C 929.269531 12.285156 940.519531 16.785156 950.738281 23.40625 L 951.898438 19.097656 C 909.597656 19.226562 867.363281 19.292969 825.0625 19.421875 C 804.171875 19.421875 783.34375 19.550781 762.449219 19.613281 C 745.800781 19.613281 727.800781 18.519531 712.308594 25.65625 C 686.402344 37.550781 685.757812 68.019531 677.851562 91.613281 C 673.09375 105.625 664.542969 117.003906 650.082031 121.890625 C 633.6875 127.355469 615.816406 125.492188 598.84375 125.875 C 556.546875 126.96875 514.566406 137.191406 476.574219 155.832031 C 474.328125 156.925781 475.613281 160.011719 477.734375 160.140625 C 504.089844 162.003906 535.269531 164.191406 553.269531 186.433594 C 560.660156 195.5625 564.324219 207.839844 559.183594 218.960938 C 554.039062 230.082031 542.726562 237.730469 530.640625 235.996094 L 529.996094 240.558594 C 550.054688 243.066406 570.625 239.917969 588.882812 231.238281 C 602.1875 224.875 619.671875 211.632812 612.539062 194.660156 C 607.007812 181.546875 590.101562 176.789062 577.4375 174.605469 C 568.695312 173.0625 559.761719 172.738281 551.019531 171.070312 C 544.011719 169.71875 537.132812 167.789062 530.445312 165.347656 C 524.210938 163.097656 518.039062 160.589844 511.675781 158.726562 C 502.160156 155.960938 492.390625 154.613281 482.554688 153.648438 L 482.554688 158.277344 C 536.296875 160.589844 590.875 168.367188 643.84375 154.867188 C 659.980469 150.753906 675.664062 144.96875 690.964844 138.410156 C 693.152344 137.449219 691.929688 134.039062 689.808594 134.105469 C 640.757812 135.003906 591.515625 136.160156 542.855469 142.527344 C 494.191406 148.890625 448.742188 159.882812 405.925781 181.160156 C 390.820312 188.683594 363.691406 200.0625 373.65625 221.597656 C 383.621094 243.132812 409.589844 242.808594 428.8125 236.382812 C 439.417969 232.847656 451.3125 228.601562 460.3125 221.851562 C 467.320312 216.582031 471.820312 208.226562 468.089844 199.609375 C 464.363281 190.996094 455.105469 185.855469 446.234375 184.632812 C 435.175781 183.152344 424.183594 187.976562 414.925781 193.441406 C 406.183594 198.648438 396.285156 204.625 391.65625 214.074219 C 387.605469 222.367188 391.398438 230.789062 400.65625 232.71875 C 418.527344 236.511719 437.167969 221.789062 439.613281 204.175781 C 440.191406 200.125 439.804688 196.074219 438.519531 192.152344 C 438.199219 191.125 437.363281 190.546875 436.269531 190.417969 C 415.890625 188.554688 396.21875 197.296875 381.5625 211.054688 C 365.429688 226.226562 356.8125 246.988281 352.25 268.332031 C 349.484375 281.1875 348.070312 294.300781 346.65625 307.351562 C 346.464844 309.023438 348.265625 309.792969 349.613281 309.601562 C 405.21875 300.539062 461.148438 293.402344 517.269531 288.257812 C 533.082031 286.78125 548.894531 285.496094 564.710938 284.335938 C 567.667969 284.144531 567.667969 279.453125 564.710938 279.710938 Z M 564.132812 279.710938 " fill-opacity="1" fill-rule="nonzero"/></svg>